<?xml version="1.0" encoding="iso-8859-1"?>
<!-- Uploaded to: SVG Repo, www.svgrepo.com, Generator: SVG Repo Mixer Tools -->
<svg height="800px" width="800px" version="1.1" id="Layer_1" xmlns="http://www.w3.org/2000/svg" xmlns:xlink="http://www.w3.org/1999/xlink" 
	 viewBox="0 0 511.672 511.672" xml:space="preserve">
<path style="fill:#8C4C4C;" d="M499.898,196.03c-187.161,19.862-276.284,88.662-319.107,121.734
	c-7.651,5.903-16.201,12.492-20.354,14.491c-1.444-2.717-4.458-11.056-4.762-33.229c-0.227-16.303,1.155-31.354,1.171-31.512
	l1.085-11.648H9.018l-1.499,8.87c-13.905,82.572-8.62,134.944,16.653,164.832c16.365,19.33,40.748,28.763,74.546,28.763
	c4.833,0,9.962-0.219,15.256-0.593c35.696-2.562,70.471-33.512,114.505-72.704c31.714-28.231,67.66-60.212,112.49-89.942
	c51.857-34.367,105.121-58.587,162.803-74.015l7.9-2.124v-24.172L499.898,196.03z"/>
<path style="fill:#656D78;" d="M503.772,221.077l7.9-2.124v-24.172l-11.773,1.249c-98.998,10.509-170.577,34.712-222.356,60.071
	c2.028,13.506,9.321,46.329,32.885,60.508c9.713-7.246,19.863-14.428,30.543-21.519C392.826,260.725,446.09,236.504,503.772,221.077
	z"/>
<path style="fill:#CCD1D9;" d="M82.315,205.743c-0.07-0.094-7.597-7.901-11.336-19.238c-4.841-14.646-1.148-27.857,11.305-40.364
	c22.946-23.032,21.611-46.486,16.45-62.101c-5.348-16.193-15.966-27.077-16.419-27.514l0,0c-1.929-1.967-4.614-3.185-7.581-3.185
	c-5.887,0-10.657,4.778-10.657,10.681c0,2.904,1.163,5.527,3.053,7.433l-0.008,0.016c0.078,0.078,7.917,8.244,11.571,19.847
	c4.536,14.443,0.773,27.451-11.508,39.787c-22.938,23.016-21.604,46.47-16.451,62.085c5.348,16.208,15.974,27.076,16.419,27.529
	h0.008c1.928,1.952,4.606,3.17,7.573,3.17c5.887,0,10.657-4.778,10.657-10.665C85.391,210.303,84.22,207.664,82.315,205.743
	L82.315,205.743z"/>
<g>
	<path style="opacity:0.1;fill:#FFFFFF;enable-background:new    ;" d="M499.898,196.03
		c-187.161,19.862-276.284,88.662-319.107,121.734c-7.651,5.903-16.201,12.492-20.354,14.491c6.23,0.905,14.499,2.498,26.429-3.123
		c4.169-1.937,7.589-5.465,15.24-11.368c42.09-32.511,128.901-99.53,309.566-120.657v-2.327L499.898,196.03z"/>
	<path style="opacity:0.1;fill:#FFFFFF;enable-background:new    ;" d="M45.487,429.568c-25.265-29.888-30.559-82.26-16.653-164.832
		l1.499-8.869H9.018l-1.499,8.869c-13.905,82.572-8.62,134.944,16.653,164.832c16.365,19.33,40.748,28.763,74.546,28.763
		c3.545,0,7.253-0.125,11.063-0.312C81.253,456.239,60.149,446.901,45.487,429.568z"/>
</g>
<path style="fill:#434A54;" d="M501.024,231.945c-5.901,0-10.666-4.762-10.666-10.649v-25.312c0-5.887,4.765-10.665,10.666-10.665
	c5.871,0,10.648,4.778,10.648,10.665v25.312C511.672,227.183,506.895,231.945,501.024,231.945z"/>
</svg>